<svg width="689" height="185" viewBox="0 0 689 185" fill="none" xmlns="http://www.w3.org/2000/svg">
<path d="M128 180.75C128 180.583 127.833 180.25 127.5 179.75C127.167 179.417 127 179.167 127 179C127 178.833 127.167 178.417 127.5 177.75C128 177.083 128.333 176.583 128.5 176.25C128.667 176.083 129.25 175.417 130.25 174.25C131.417 173.25 132.083 172.75 132.25 172.75C132.083 172.75 132.083 172.75 132.25 172.75C132.25 172.917 132.5 173.25 133 173.75C133.333 173.25 133.583 172.75 133.75 172.25C133.917 171.75 134.083 171.167 134.25 170.5C134.917 170.333 135.75 169.833 136.75 169C137.25 168.333 138.083 167.25 139.25 165.75C140.417 164.25 142.333 161.917 145 158.75C146 158.583 147.083 157 148.25 154C148.25 153.833 148.25 153.583 148.25 153.25C148.25 152.917 148.333 152.5 148.5 152C148.667 152.167 148.917 152.75 149.25 153.75C150.25 153.417 150.833 152.917 151 152.25C153.167 150.417 155.5 147.167 158 142.5C159.833 140.667 161.083 139.667 161.75 139.5C162.083 137.5 162.083 136.5 161.75 136.5C162.25 136.333 162.667 135.75 163 134.75C163.667 134.75 165.083 133.25 167.25 130.25L168.25 129C169.417 128.5 170.917 127.083 172.75 124.75C173.083 124.417 173.417 124.083 173.75 123.75C174.083 123.417 174.583 123.083 175.25 122.75C175.417 122.417 175.333 121.917 175 121.25C176 121.25 176.333 121.417 176 121.75H176.25C177.25 121.75 177.833 120.583 178 118.25C177.833 118.25 177.833 118.167 178 118V118.25C178 118.25 178.167 118.25 178.5 118.25C178.333 118.25 178.833 117.667 180 116.5C180.333 116.167 180.833 115.667 181.5 115C182.167 114.333 182.583 113.583 182.75 112.75V111.75C182.917 111.417 183.083 111.083 183.25 110.75C183.583 110.417 183.833 110.083 184 109.75C184.833 108.083 185.417 107.25 185.75 107.25C185.583 107.083 185.417 106.833 185.25 106.5C185.083 106.167 184.917 105.833 184.75 105.5C182.75 107.833 181.75 109.25 181.75 109.75C181.75 110.25 181.667 110.75 181.5 111.25C181.167 111.25 180.75 111.167 180.25 111C179.917 110.667 179.583 110.5 179.25 110.5C177.083 110.5 176.583 111.25 177.75 112.75L176.5 113.25C174.833 115.417 173.25 117.333 171.75 119C170.25 120.5 168.833 121.917 167.5 123.25L162 127.75C161.833 127.917 161.75 128.083 161.75 128.25C161.75 128.417 161.083 128.917 159.75 129.75C159.083 130.417 158.333 131.25 157.5 132.25C156.833 133.083 156.083 134.083 155.25 135.25L149.5 141.5C148.833 142.167 147.917 142.917 146.75 143.75C145.583 144.75 144.25 145.917 142.75 147.25L140.5 149.75C140.5 149.417 140.333 149.083 140 148.75C140.167 147.917 140.667 146.917 141.5 145.75C142.5 144.583 144.083 142.833 146.25 140.5L158 127.5L164 122.5C165.667 120.333 168.583 116.917 172.75 112.25C174.083 111.583 175.333 110.75 176.5 109.75L177 108.75C180 106.417 182.5 103.917 184.5 101.25L186.75 100C187.083 99.5 187.667 98.9167 188.5 98.25C189.5 97.4167 191 96.3333 193 95C197.333 90.8333 199.417 88.25 199.25 87.25C201.25 86.25 202.167 84.5 202 82L202.5 83.75C203.5 83.75 204.167 83.1667 204.5 82C204.833 80.8333 205.083 79.75 205.25 78.75L210.75 68.75L211.75 65C212.083 64.8333 212.333 64.3333 212.5 63.5C212.667 62.6667 213.583 61 215.25 58.5V57.75C215.25 57.25 215.25 56.75 215.25 56.25C215.417 55.75 215.583 55.25 215.75 54.75C216.083 54.5833 216.583 54 217.25 53C217.583 52.6667 217.75 52 217.75 51L217.25 49.25V48C217.25 48 217.75 47.4167 218.75 46.25C219.083 45.9167 219.083 45.5833 218.75 45.25L221 41.25V40.25C221 39.9167 221 39.4167 221 38.75C221 37.9167 220.917 37 220.75 36L221.25 35.25V31.75C221.75 29.9167 222 29.3333 222 30C222 28.3333 221.917 27.25 221.75 26.75L218 19.25C217.333 18.25 216.333 17.75 215 17.75L214 18C214 17.6667 214.083 17.4167 214.25 17.25C213.75 16.4167 213.167 16 212.5 16H212C212 16.1667 211.917 16.25 211.75 16.25H211.5C211.667 16.25 211.75 16.25 211.75 16.25C211.75 16.0833 210.917 15.75 209.25 15.25C208.25 14.9167 207.333 14.75 206.5 14.75C206.333 14.75 206.333 14.8333 206.5 15C206.5 15.3333 206.417 15.5 206.25 15.5C205.917 15.5 205.667 15.4167 205.5 15.25C205.5 15.0833 205.417 15 205.25 15C204.917 15 204.583 15.1667 204.25 15.5C204.083 15.8333 203.917 16 203.75 16C203.417 16 202.833 15.9167 202 15.75C201.167 15.5833 200.583 15.5 200.25 15.5L194.75 16.25L189.5 16.75C188.5 17.4167 187.75 17.75 187.25 17.75C186.917 17.75 185.833 18.0833 184 18.75C182.5 19.4167 181.417 19.75 180.75 19.75C180.417 19.75 178.75 20.25 175.75 21.25L175 22.25C165.5 25.5833 157.083 29.3333 149.75 33.5C149.083 33.6667 148.333 34 147.5 34.5C146.833 34.8333 145.917 35.1667 144.75 35.5L127.5 43.75C123.667 46.0833 122.083 47.25 122.75 47.25H122.25C122.25 47.0833 122.083 47 121.75 47C122.083 47 121.667 47.25 120.5 47.75C119.333 48.25 118 49.3333 116.5 51C114.833 51 113.917 51.3333 113.75 52C113.417 52 113.417 51.8333 113.75 51.5C113.75 51.3333 113.667 51.25 113.5 51.25C113.333 51.25 112.583 51.9167 111.25 53.25C110.083 54.4167 109.417 55 109.25 55C109.083 55 108.917 54.9167 108.75 54.75H108.5C108.5 54.75 107.417 55.1667 105.25 56C104.75 56.1667 104.5 56.5833 104.5 57.25L99.25 60.25C99.4167 60.25 98.3333 61 96 62.5L89.75 65.5L81.25 70C81.0833 70 81 70.25 81 70.75C81 70.5833 80.8333 70.5 80.5 70.5C79.3333 70.5 78.0833 71.0833 76.75 72.25C76.4167 72.25 76.0833 72.3333 75.75 72.5C74.5833 73.1667 73 74.1667 71 75.5C70.8333 75.5 69.6667 76.3333 67.5 78C67.1667 77.6667 66.75 77.5 66.25 77.5C66.0833 77.5 65.75 77.6667 65.25 78C64.9167 78.3333 64.6667 78.5 64.5 78.5C64.1667 78.5 64 78.4167 64 78.25C64.1667 78.0833 64.1667 78 64 78C62.8333 78 61.75 79 60.75 81C59.4167 81 58.0833 81.5 56.75 82.5C55.5833 83.3333 54.8333 83.75 54.5 83.75C54.3333 83.75 53.5833 84.25 52.25 85.25C51.5833 85.4167 50.75 85.6667 49.75 86C48.75 86.3333 47.5833 86.75 46.25 87.25C45.9167 87.4167 45.25 87.9167 44.25 88.75C43.25 89.5833 42.5833 90 42.25 90H42C42.1667 89.8333 42.0833 89.75 41.75 89.75C41.5833 89.75 41.3333 89.9167 41 90.25C40.8333 90.5833 40.6667 90.75 40.5 90.75C40.1667 90.75 38.5833 91.1667 35.75 92L35 91.5C33.3333 92.6667 32.4167 93.25 32.25 93.25C32.0833 93.25 31.9167 93.1667 31.75 93C31.5833 92.8333 31.3333 92.75 31 92.75C30.6667 92.75 30.0833 93 29.25 93.5C28.5833 94 28.0833 94.25 27.75 94.25H27.5C27.5 94.0833 27.4167 94 27.25 94C27.0833 94 27 94.1667 27 94.5C27.1667 94.6667 27.0833 94.75 26.75 94.75C26.5833 94.75 26.3333 94.6667 26 94.5C25.8333 94.3333 25.6667 94.25 25.5 94.25C25.1667 94.25 25 94.4167 25 94.75C25.1667 94.9167 25.1667 95 25 95C24.6667 95 24.5833 94.9167 24.75 94.75H24.5C23.5 94.75 23.1667 94.8333 23.5 95L23 95.5C22.3333 95.5 21.4167 95.4167 20.25 95.25C19.25 95.0833 18.6667 95 18.5 95C18.3333 95 18.1667 95.1667 18 95.5C17.8333 95.6667 17.6667 95.75 17.5 95.75C17.1667 95.75 16.1667 95.5 14.5 95C12.8333 94.5 11.9167 94.25 11.75 94.25C11.9167 94.25 11.5 94.5 10.5 95L6.25 92.75C5.41667 92.25 5 91.9167 5 91.75V92H4.75C4.25 92 2.66667 90.1667 2.17929e-07 86.5V84.75C0.166667 84.5833 0.25 84.3333 0.25 84C0.25 82 0.75 79.25 1.75 75.75C1.41667 75.25 2.5 72.9167 5 68.75C5.83333 68.0833 6.66667 67.3333 7.5 66.5C8.33333 65.5 9.16667 64.3333 10 63C11.8333 61.3333 13.3333 59.75 14.5 58.25C15 57.75 15.9167 57.25 17.25 56.75L17.75 55.75C18.5833 54.9167 19.6667 54 21 53C22.5 51.8333 24.1667 50.5833 26 49.25C26.3333 49.0833 26.8333 48.6667 27.5 48C28.1667 47.3333 29.0833 46.8333 30.25 46.5C31.4167 44.8333 32.3333 44 33 44H33.25C33.25 44.1667 33.3333 44.25 33.5 44.25C33.5 44.25 33.5833 44.0833 33.75 43.75C34.0833 43.4167 34.6667 43.25 35.5 43.25L36.25 42.75C36.5833 42.75 36.75 42.6667 36.75 42.5H37L39.5 40.75V42.5L35 45.75L30.25 48.25L24 53.25C23.1667 54.4167 21.5833 55.6667 19.25 57C18.9167 58.1667 17.4167 59.75 14.75 61.75C14.75 61.9167 14.75 62.1667 14.75 62.5C14.75 62.8333 14.6667 63.1667 14.5 63.5C14.5 63.5 14.4167 63.5 14.25 63.5C14.25 63.5 14.1667 63.4167 14 63.25C13.3333 63.9167 12.8333 64.9167 12.5 66.25C12.1667 65.9167 11.9167 65.75 11.75 65.75C11.5833 66.0833 11.3333 66.5833 11 67.25C10.8333 67.9167 10.4167 68.6667 9.75 69.5L8 70.25V70.75C8 72.25 7.08333 73.5 5.25 74.5C5.25 74.6667 5.25 74.75 5.25 74.75C5.41667 74.75 5.5 74.8333 5.5 75C5.5 75.6667 5.16667 76.5833 4.5 77.75C3.83333 78.75 3.5 79.4167 3.5 79.75C3.5 79.9167 3.58333 80.25 3.75 80.75C4.08333 81.25 4.25 81.6667 4.25 82C4.25 82.1667 4.25 82.4167 4.25 82.75C4.25 83.0833 4.16667 83.5 4 84C4.16667 84.5 4.5 85 5 85.5C5.5 85.8333 6.08333 86.1667 6.75 86.5C7.75 87 8.33333 87.3333 8.5 87.5C8.5 87.5 8.58333 87.5 8.75 87.5C8.91667 87.5 9 87.6667 9 88C9 88.3333 9.08333 88.5 9.25 88.5C9.58333 88.5 9.83333 88.3333 10 88C10.1667 87.5 10.4167 87.25 10.75 87.25C10.9167 87.25 11 87.3333 11 87.5H11.5C11.8333 87.5 12 87.25 12 86.75C12.1667 86.9167 12.3333 87.0833 12.5 87.25C12.6667 87.4167 12.9167 87.6667 13.25 88H13.75C14.25 88 14.75 87.9167 15.25 87.75C16.0833 87.4167 16.8333 87.4167 17.5 87.75L21.5 88.5C21.8333 88.5 22.4167 88.25 23.25 87.75C24.0833 87.25 25 87 26 87H27C27.1667 87.1667 27.5 87.25 28 87.25L28.5 86.75C29 86.5833 29.6667 86.3333 30.5 86C31.3333 85.5 31.8333 85.25 32 85.25C32.1667 85.25 32.4167 85.3333 32.75 85.5C33.0833 85.6667 33.3333 85.75 33.5 85.75C33 85.75 33.4167 85.5 34.75 85C36.25 84.3333 38.25 83.75 40.75 83.25C40.4167 82.9167 40.5 82.75 41 82.75H41.75C41.9167 82.9167 42.25 83 42.75 83C42.9167 83 43 82.9167 43 82.75C43 82.5833 43.0833 82.5 43.25 82.5H43.75C43.5833 82.6667 43.6667 82.75 44 82.75C44.1667 82.75 44.4167 82.5833 44.75 82.25C45.0833 81.75 45.3333 81.5 45.5 81.5C45.6667 81.5 45.75 81.5833 45.75 81.75H46.25C46.4167 81.75 46.5833 81.6667 46.75 81.5C46.9167 81.1667 47.0833 81 47.25 81H47.75C47.9167 81.1667 48.0833 81.25 48.25 81.25C49.0833 80.9167 50.1667 80.4167 51.5 79.75C52.8333 78.9167 54.4167 78 56.25 77C56.5833 77.1667 57.0833 77.1667 57.75 77C58.4167 76.5 59.3333 76 60.5 75.5C61.6667 75 63.75 74.1667 66.75 73C67.5833 72.5 68.9167 71.5833 70.75 70.25C72.5833 68.9167 73.6667 68.25 74 68.25C74.1667 68.25 74.1667 68.3333 74 68.5C73.8333 68.6667 73.9167 68.75 74.25 68.75C75.9167 68.75 77.4167 67.8333 78.75 66C79.0833 65.8333 79.6667 65.4167 80.5 64.75C81.3333 64.0833 81.9167 63.75 82.25 63.75C82.4167 63.75 82.5 63.8333 82.5 64C82.6667 64.1667 82.8333 64.25 83 64.25C83.1667 64.25 83.6667 63.9167 84.5 63.25C85.3333 62.5833 85.8333 62.25 86 62.25H86.25C86.25 62.4167 86.3333 62.5 86.5 62.5C87.5 62.5 89.3333 61.25 92 58.75C93.1667 57.5833 93.6667 57 93.5 57C93.8333 57 93.9167 57.0833 93.75 57.25H94.25C95.0833 57.25 95.8333 57 96.5 56.5C101.5 53.5 103.917 52 103.75 52H104.25C104.25 52.1667 104.333 52.25 104.5 52.25C103.833 52.25 106.083 50.9167 111.25 48.25C111.917 48.25 113.083 47.5833 114.75 46.25C114.917 46.25 115.167 46.1667 115.5 46C115.833 45.8333 116.75 45.3333 118.25 44.5C119.917 43.5 120.75 42.8333 120.75 42.5H122C121.667 42.5 121.667 42.6667 122 43C123.167 42.1667 124.583 41.1667 126.25 40C128.083 38.8333 130.083 37.5833 132.25 36.25H132.5C132.667 36.25 133.417 35.9167 134.75 35.25L137.75 33.75C138.25 33.4167 138.667 32.75 139 31.75L139.75 32.5C140.083 32.1667 140.75 31.75 141.75 31.25C142.75 30.5833 144.417 29.75 146.75 28.75L148 27.5C148.667 27.3333 149.333 27.0833 150 26.75C150.833 26.4167 151.667 26.0833 152.5 25.75L157 22.25C157.833 22.0833 158.917 21.6667 160.25 21C161.75 20.3333 163.917 19.25 166.75 17.75C167.417 17.75 168.333 17.5 169.5 17C172.333 15.3333 173.667 14.5 173.5 14.5C173.667 14.5 173.75 14.5833 173.75 14.75H174C174.5 14.75 176.25 14.1667 179.25 13C182.583 11.6667 184.417 10.75 184.75 10.25C185.083 10.5833 185.5 10.75 186 10.75C186.167 10.75 186.333 10.6667 186.5 10.5C186.833 10.1667 187.083 9.99999 187.25 9.99999C187.417 9.99999 187.667 10.1667 188 10.5C188.333 10.5 188.583 10.1667 188.75 9.5C188.917 9.66666 189.333 9.75 190 9.75C190.333 9.75 191 9.49999 192 8.99999C193.167 8.33332 193.833 7.99999 194 7.99999H195.25C195.583 8.16666 195.917 8.25 196.25 8.25C198.917 8.25 200.917 7.58333 202.25 6.25C202.417 6.41666 202.917 6.49999 203.75 6.49999C203.917 6.49999 204.333 6.49999 205 6.49999C205.833 6.49999 207 6.58332 208.5 6.74999C210.167 6.91665 211.333 6.99999 212 6.99999C212.833 6.99999 213.333 6.99999 213.5 6.99999C213 6.99999 213.25 6.83332 214.25 6.49999C214.083 6.66666 214 6.91666 214 7.25C214 7.91667 214.5 8.5 215.5 8.99999C216.5 7.49999 217.333 6.74999 218 6.74999C219 6.74999 221.583 7.66666 225.75 9.5C225.75 9.5 225.833 9.75 226 10.25C226.333 10.5833 226.667 10.75 227 10.75H227.25C227.25 10.5833 227.333 10.5 227.5 10.5C228.5 10.5 229.333 12.0833 230 15.25C230.667 15.5833 231.25 15.75 231.75 15.75C231.917 16.0833 232.167 16.5833 232.5 17.25C233 17.9167 233.583 18.6667 234.25 19.5C234.25 19.6667 234.25 20 234.25 20.5C234.417 20.8333 234.583 21.25 234.75 21.75C235.083 22.9167 235.333 23.9167 235.5 24.75C235.667 25.5833 235.833 26.4167 236 27.25V30C236 30.1667 236.083 30.5 236.25 31C236.583 31.3333 236.75 31.5833 236.75 31.75C236.75 31.9167 236.583 32.25 236.25 32.75C236.083 33.0833 236 33.3333 236 33.5C236.167 34 236.25 35.0833 236.25 36.75L235.5 37.75C235.333 38.75 235.083 39.9167 234.75 41.25C234.417 42.5833 234.25 43.9167 234.25 45.25C233.25 45.5833 232.667 46.0833 232.5 46.75C232.167 48.4167 231.75 49.3333 231.25 49.5C230.75 49.5 230.583 50.6667 230.75 53C229.75 54 228.833 55.25 228 56.75C227.833 58.25 227.083 60.25 225.75 62.75L226 63.75L224 65.25C224 65.25 224.167 66 224.5 67.5C224.5 67.6667 224.75 67.75 225.25 67.75C225.917 67.75 226.5 67.0833 227 65.75C226.333 65.75 227.417 65.3333 230.25 64.5C231.583 64.1667 232.167 63.9167 232 63.75C232 63.4167 232.583 63 233.75 62.5C234.917 61.6667 236 60.9167 237 60.25C238 59.4167 238.917 58.75 239.75 58.25C240.25 58.25 240.917 58 241.75 57.5C242.583 56.8333 243.75 56.0833 245.25 55.25L245.75 54.75L248.75 52.75C249.25 52.5833 249.833 52.4167 250.5 52.25C251.333 51.9167 252.25 51.5 253.25 51C254.917 49.6667 256.167 48.6667 257 48C257.833 47.3333 258.25 47 258.25 47C258.417 47 258.5 47.0833 258.5 47.25H259C258.5 47.25 259.917 46.3333 263.25 44.5C265.417 43.8333 268.667 42.1667 273 39.5C272.833 40 272.917 40.25 273.25 40.25C274.083 40.25 275.667 39.5833 278 38.25C279.333 37.4167 280.333 37.1667 281 37.5C281.167 37.5 281.333 37.4167 281.5 37.25C281.667 37.0833 282.083 37.0833 282.75 37.25L285.5 35C285.5 35.3333 285.667 35.5 286 35.5H287C287.833 35.5 288.583 35.25 289.25 34.75C290.083 34.25 290.833 33.9167 291.5 33.75H292.25C292.417 33.9167 292.667 34 293 34H300.75C300.917 34 301.083 33.9167 301.25 33.75C301.583 33.4167 301.833 33.25 302 33.25C302.167 33.25 302.167 33.4167 302 33.75C302 33.9167 302.167 34 302.5 34L305.25 33.25C305.917 33.25 308.167 34.5833 312 37.25L312.75 36.75L315 40.25C316 40.5833 316.583 40.75 316.75 40.75V42.5C316.917 43 317 43.5 317 44C317 43.6667 316.417 44.3333 315.25 46V47.75C315.083 47.9167 314.917 48.0833 314.75 48.25C314.583 48.4167 314.417 48.6667 314.25 49C314.25 49.6667 314.25 50.4167 314.25 51.25C314.25 52.0833 314.167 53.0833 314 54.25L311.25 61.25L304.75 71.5C304.417 71.8333 303.917 72.3333 303.25 73C302.75 73.5 302.667 74.25 303 75.25C301.5 75.9167 300.083 77.3333 298.75 79.5L299 82.25L299.75 81.5C300.083 81.1667 300.583 80.8333 301.25 80.5C302.083 80 302.917 79.4167 303.75 78.75C303.917 78.4167 304.417 77.8333 305.25 77L312.5 72.5C315.333 71 316.417 70.25 315.75 70.25H316.25C316.25 70.4167 316.333 70.5 316.5 70.5C316.667 70.5 316.917 70.3333 317.25 70C317.75 69.6667 318.083 69.5 318.25 69.5C318.417 69.5 318.5 69.5833 318.5 69.75H319C319.167 69.75 319.333 69.6667 319.5 69.5C319.833 69.3333 320.083 69.25 320.25 69.25C320.417 69.25 321.583 68.8333 323.75 68C325.917 67.1667 327.083 66.75 327.25 66.75C327.417 66.75 327.75 66.9167 328.25 67.25C328.75 67.4167 329.167 67.5 329.5 67.5C329.667 67.5 330.167 67.4167 331 67.25C331.833 67.0833 332.417 67 332.75 67C334.25 67 336.083 68 338.25 70C338.583 70.5 339.083 71.1667 339.75 72C340.583 72.6667 341.417 73.4167 342.25 74.25C342.417 74.9167 342.667 75.5 343 76C343.333 76.5 343.667 77 344 77.5L346.25 86.75C346.25 86.9167 346.417 87.5 346.75 88.5C347.25 89.3333 347.5 89.8333 347.5 90C347.5 90 347.167 90.5833 346.5 91.75L346 91.25L345.5 91.5L345 91C344.167 91.3333 343.75 91.9167 343.75 92.75C343.75 92.9167 343.833 93.25 344 93.75C344.333 94.25 344.5 94.6667 344.5 95V100.25C344.833 100.75 345.167 101.417 345.5 102.25C345.833 102.917 346.167 103.833 346.5 105C346.667 105.667 346.833 106.5 347 107.5C347.167 108.333 347.417 109.333 347.75 110.5C348.25 111 348.833 111.667 349.5 112.5C350.333 113.333 351.167 114.417 352 115.75C352.833 117.083 353.75 118 354.75 118.5H355.5C355.833 118.5 356.083 118.417 356.25 118.25C356.583 118.083 356.917 118 357.25 118L358 118.5H361C362 118.5 362.5 119.083 362.5 120.25C362.5 121.25 361.917 122.083 360.75 122.75C359.583 123.417 358.75 123.75 358.25 123.75C358.083 123.75 357.083 123.083 355.25 121.75C353.583 120.25 352.5 119.5 352 119.5C351.5 119.5 351.417 119.667 351.75 120C351.583 119.833 351.5 119.417 351.5 118.75C351 118.583 349.417 116.417 346.75 112.25L343.5 108.75L342 104.25L340 102.5C340.333 102.167 340.333 101.833 340 101.5C339.667 101.167 339.25 100.167 338.75 98.5L338 96.25L334.75 92L332 86.5C332 86.5 331.75 85.9167 331.25 84.75C330.917 83.4167 330.333 82.1667 329.5 81C328.667 79.8333 327.75 79.25 326.75 79.25C326.417 79.25 326.25 79.3333 326.25 79.5H326C326.5 79.5 325.667 78.9167 323.5 77.75C323.333 77.4167 322.583 77.1667 321.25 77L320.25 75.75L319.5 77.25L317.75 76.5C317.417 76.5 317.083 76.6667 316.75 77C316.583 77.1667 316.417 77.25 316.25 77.25C316.083 77.25 316 77.1667 316 77H315.75C315.583 77 315.333 77.25 315 77.75C314.667 78.25 314.333 78.5 314 78.5C313.5 78.5 313.25 78.3333 313.25 78L310.25 79.75L309.25 79.5L302.75 83.5H302.25C302.25 83.3333 302.167 83.25 302 83.25C302.333 83.25 300.583 84.9167 296.75 88.25C295.083 89.0833 293.917 89.9167 293.25 90.75C292.25 91.5833 291 92.6667 289.5 94C288 95.1667 286.167 96.5833 284 98.25C282.333 99.5833 281.167 100.667 280.5 101.5C280 102.333 279.333 103.333 278.5 104.5C278.333 104.5 278 104.917 277.5 105.75C277 106.583 276.5 107.333 276 108C276.167 107.833 276 107.75 275.5 107.75C276 107.75 275.75 107.917 274.75 108.25L272 112C271.667 112.167 271.167 112.417 270.5 112.75C269.833 112.917 268.917 113.333 267.75 114C267.25 113.5 266.5 113.25 265.5 113.25L265 111.5C265 109.5 265.583 108.5 266.75 108.5C266.917 108.5 266.917 108.583 266.75 108.75C266.75 108.917 266.917 109 267.25 109L270.75 105.75L273.25 102.75C273.583 102.583 273.917 102.333 274.25 102C274.75 101.667 275.333 101.25 276 100.75C276.333 100.75 276.583 100.667 276.75 100.5C277.417 99.8333 278.083 99 278.75 98C279.583 97 280.5 95.8333 281.5 94.5C281.5 94 281.583 93.5833 281.75 93.25C283.417 91.25 284.417 89.5833 284.75 88.25L287.25 85.25L288.75 81.25L291.75 76.5L293.75 72.5C294.75 70.1667 295.75 67.5 296.75 64.5C297.917 61.5 299.083 58.0833 300.25 54.25C300.25 53.75 300.333 53.4167 300.5 53.25C300.5 52.0833 300.417 51.6667 300.25 52C300.25 51.3333 300.167 50.8333 300 50.5C300 50 299.917 49.5833 299.75 49.25V47.75C299.583 47.25 299.333 46.6667 299 46C298.667 45.3333 298.333 44.5833 298 43.75C298 43.75 297.5 43.5833 296.5 43.25C296.5 43.25 296.333 43.0833 296 42.75C295.667 42.25 295.417 42 295.25 42H294.75C294.75 42.1667 294.667 42.25 294.5 42.25C294.5 42.25 293.917 41.9167 292.75 41.25C292.583 41.25 292 41.5 291 42C290 42.5 289.417 42.75 289.25 42.75C288.917 42.75 288.833 42.6667 289 42.5H288.5C288.333 42.5 288 42.6667 287.5 43C287 43.3333 286.583 43.5 286.25 43.5L285.75 42.5L282.25 43.25C281.083 43.5833 280.25 43.9167 279.75 44.25C279.25 44.4167 278.917 44.5 278.75 44.5C278.583 44.5 278.5 44.4167 278.5 44.25H278.25C277.917 44.25 277.5 44.5 277 45L272.75 46.5C271.417 45.8333 270.417 45.5 269.75 45.5C269.417 45.5 268.917 45.8333 268.25 46.5C268.083 47 267.667 47.5 267 48C266.333 48.3333 265.833 48.75 265.5 49.25C265.333 49.25 265.083 49.1667 264.75 49C264.417 48.8333 264.083 48.75 263.75 48.75C263.417 49.0833 263.333 49.5 263.5 50H263C261.833 50 260.5 50.5 259 51.5C257.667 52.5 255.333 53.6667 252 55C250.833 55.6667 249.167 56.75 247 58.25C245 59.75 243.917 60.5 243.75 60.5C243.417 60.5 243.25 60.4167 243.25 60.25H242.75C242.583 60.25 241.083 61.4167 238.25 63.75C237.917 63.9167 237.5 64.0833 237 64.25C236.5 64.4167 235.833 64.5833 235 64.75C234.5 66.5833 231.833 68.1667 227 69.5C226.667 70.5 225.333 71.5833 223 72.75C223 72.9167 222.833 73.3333 222.5 74C220.333 74.6667 218.667 75.8333 217.5 77.5C217.5 78.1667 217.083 79 216.25 80C214.583 81.6667 213.583 83.4167 213.25 85.25C211.583 87.9167 210.833 89.1667 211 89C211.167 89.1667 211.167 89.25 211 89.25V89C210.833 89 210.583 88.9167 210.25 88.75L209 90.25C209 90.5833 208.917 91.25 208.75 92.25C208.583 93.0833 208.5 93.6667 208.5 94L207.5 93.25C207.333 93.25 207.167 93.1667 207 93L205.5 95.5C205.333 95.5 205.083 95.75 204.75 96.25C203.25 96.9167 202.583 98.0833 202.75 99.75L199.75 102.5C199.583 102.667 199.417 103.083 199.25 103.75C199.083 104.25 198.833 105 198.5 106C198.167 106.167 197.75 106.417 197.25 106.75C196.917 107.083 196.417 107.417 195.75 107.75L194.75 110.5C194.083 110.5 193.167 111.333 192 113C191.667 113.333 191.25 113.75 190.75 114.25C190.417 114.75 190.083 115.5 189.75 116.5C186.25 118 184.25 120.5 183.75 124C182.583 124.167 181.583 124.917 180.75 126.25C180.75 126.75 180.5 127.667 180 129C179.333 129.333 178.583 129.833 177.75 130.5C177.083 131 176.25 131.667 175.25 132.5L173 135.5C172.667 135.833 172.25 136.25 171.75 136.75C171.417 137.083 171.083 137.333 170.75 137.5C170.25 138.167 170.167 138.667 170.5 139C170.167 139.167 169.75 139.333 169.25 139.5C168.75 139.667 168.167 139.917 167.5 140.25L166.75 142.75C166.75 143.25 166.25 143.667 165.25 144C164.25 146 163.417 147 162.75 147C162.417 147 162.167 146.917 162 146.75C161.167 148.417 159.917 150.333 158.25 152.5C158.083 152.667 158 152.917 158 153.25C157.167 153.25 156.5 153.5 156 154C155.5 154.667 155.083 155 154.75 155H154.5C154.5 154.833 154.417 154.75 154.25 154.75C154.25 154.75 154.083 155 153.75 155.5C153.417 156 152.917 156.833 152.25 158L151 160C150 160.333 149.417 160.833 149.25 161.5C148.25 161.833 147.417 162.5 146.75 163.5C146.25 164.5 145.917 165 145.75 165H145.25C145.083 164.833 144.917 164.75 144.75 164.75C144.083 164.75 143.5 165.417 143 166.75C141.833 167.25 141.083 167.917 140.75 168.75L136.25 172.5C134.417 173.333 133.167 174.25 132.5 175.25V175.5C132.5 176 132.25 176.667 131.75 177.5C131.417 178.333 130.167 179.417 128 180.75ZM38.5 45.5L37.5 44.5L37.75 44L38.75 45L38.5 45.5ZM8.25 87.75H8.5C8.5 87.75 8.41667 87.75 8.25 87.75ZM123 184L123.75 181.5C124.083 181.333 124.5 181.25 125 181.25C125.833 181.25 126.25 182 126.25 183.5C124.417 184.167 123.333 184.333 123 184ZM501.461 163L499.211 161C499.544 160.667 499.544 160.417 499.211 160.25L498.711 159.75L497.711 160.75L496.461 159.5C496.128 159.667 495.878 159.75 495.711 159.75C494.211 155.417 493.461 153.417 493.461 153.75C493.461 153.417 493.961 152.417 494.961 150.75V149.75C495.628 148.75 496.128 147.833 496.461 147C496.961 146.167 497.378 145.417 497.711 144.75C498.544 144.25 499.044 143.667 499.211 143C500.211 142.667 501.628 141.167 503.461 138.5C505.628 135.333 507.211 133.75 508.211 133.75C508.878 132.417 509.794 131.333 510.961 130.5L512.961 129.75L513.961 127.25C514.461 127.083 515.294 126.417 516.461 125.25L518.211 122.5C519.211 121.833 520.544 120.417 522.211 118.25C522.544 117.583 522.961 117.417 523.461 117.75L524.211 117C525.211 115.5 527.211 113.5 530.211 111L531.711 110.25C531.878 110.25 532.544 108.917 533.711 106.25C534.544 105.75 535.294 104.917 535.961 103.75C535.961 104.083 536.044 104.333 536.211 104.5C536.711 104.333 537.128 103.667 537.461 102.5C538.128 101.833 538.961 101 539.961 100C541.128 98.8333 542.378 97.4167 543.711 95.75C544.044 95.75 544.461 95.5833 544.961 95.25C545.461 94.75 545.711 94.1667 545.711 93.5C546.544 93.1667 547.294 92.6667 547.961 92C548.628 91.1667 549.294 90.3333 549.961 89.5C550.461 89.5 551.294 88.5 552.461 86.5C556.461 82.5 559.794 79.9167 562.461 78.75C562.628 78.4167 563.044 77.8333 563.711 77C564.544 76.1667 566.044 74.4167 568.211 71.75L572.711 68.5C573.544 67.1667 574.794 65.6667 576.461 64H576.961C578.294 64 579.294 63 579.961 61L580.961 61.25C580.461 61.0833 581.544 60.4167 584.211 59.25C584.211 58.9167 584.044 58.75 583.711 58.75C583.711 57.9167 584.628 56.8333 586.461 55.5C588.294 54 589.628 53.1667 590.461 53L590.961 53.75L593.711 48.5L597.711 47.25C600.544 44.75 601.628 43.5 600.961 43.5C601.128 43.5 601.211 43.6667 601.211 44C601.378 44.1667 601.544 44.25 601.711 44.25L605.461 42.25C605.794 41.75 605.794 41.3333 605.461 41C606.961 40.1667 609.378 37.9167 612.711 34.25H612.961C612.961 34.4167 613.044 34.5 613.211 34.5C613.378 34.5 613.794 34.25 614.461 33.75C615.128 33.25 615.628 33 615.961 33L616.961 30C617.794 30 618.711 29.5 619.711 28.5C620.711 27.5 622.294 26.5 624.461 25.5C624.794 24.8333 625.294 24.1667 625.961 23.5C626.794 24 627.461 24.25 627.961 24.25C628.128 24.25 629.128 23.3333 630.961 21.5C631.294 21.5 631.628 21.4167 631.961 21.25C633.128 20.4167 634.794 19.5 636.961 18.5C636.961 18.3333 636.961 18.0833 636.961 17.75C636.961 17.4167 637.044 17.0833 637.211 16.75C637.544 17.25 638.044 17.5 638.711 17.5C639.544 17.5 640.211 17.1667 640.711 16.5C640.711 16 641.128 15.3333 641.961 14.5L642.711 15C643.544 14.6667 644.378 14.1667 645.211 13.5C646.044 12.6667 646.961 11.8333 647.961 11C648.461 11 650.044 10.1667 652.711 8.5C652.878 8.5 653.044 8.41666 653.211 8.25C653.378 8.08333 653.628 7.99999 653.961 7.99999C654.628 7.99999 655.044 8.08333 655.211 8.25L655.711 7.74999H657.211C658.211 6.24999 659.294 5.24999 660.461 4.75L660.211 3.75C661.544 4.24999 662.378 4.49999 662.711 4.49999C662.878 4.49999 663.544 4.24999 664.711 3.75C665.878 3.08333 666.544 2.75 666.711 2.75C666.878 2.75 667.044 2.83333 667.211 2.99999C667.544 3.16666 667.878 3.24999 668.211 3.24999C668.378 3.24999 668.628 2.99999 668.961 2.5C669.294 2 669.628 1.74999 669.961 1.74999L672.711 2.24999C673.044 2.24999 673.378 2.16666 673.711 1.99999C674.044 1.83333 674.378 1.74999 674.711 1.74999C674.878 1.74999 675.044 1.83333 675.211 1.99999C675.378 2.16666 675.628 2.24999 675.961 2.24999C676.128 2.24999 676.461 2.08332 676.961 1.74999C677.628 1.24999 678.128 0.999989 678.461 0.999989C678.628 0.999989 679.128 1.16666 679.961 1.5C680.794 1.66666 681.378 1.74999 681.711 1.74999L683.211 -1.3113e-05C683.211 0.166661 683.378 0.499995 683.711 0.999989C684.211 1.49999 684.544 1.74999 684.711 1.74999C685.544 1.74999 686.294 1.58333 686.961 1.25C686.961 1.25 687.628 2.08333 688.961 3.75C687.294 4.24999 686.044 4.49999 685.211 4.49999C685.044 4.49999 684.961 4.33332 684.961 3.99999C684.961 3.83333 684.794 3.75 684.461 3.75C684.294 3.75 683.878 3.99999 683.211 4.49999C682.711 4.83333 682.044 5 681.211 5C681.044 5 680.961 4.91666 680.961 4.75H680.711C680.544 4.75 680.378 4.91666 680.211 5.24999C680.044 5.41666 679.794 5.49999 679.461 5.49999C679.294 5.49999 678.961 5.41666 678.461 5.24999C677.961 5.08333 677.544 5 677.211 5C677.044 5 676.711 5.16666 676.211 5.49999C675.878 5.83333 675.628 6 675.461 6C675.128 6 674.961 5.91666 674.961 5.74999C674.961 5.58332 674.794 5.49999 674.461 5.49999C674.294 5.49999 674.044 5.74999 673.711 6.25L673.211 5.49999C673.044 6.33332 672.544 6.74999 671.711 6.74999C670.878 6.74999 670.128 6.83332 669.461 6.99999C668.961 7.16666 668.044 7.83333 666.711 8.99999C665.544 10 664.878 10.5 664.711 10.5C663.544 10.5 662.794 10.4167 662.461 10.25C662.294 9.91666 661.961 9.75 661.461 9.75C660.794 9.75 659.878 10.0833 658.711 10.75C656.711 11.5833 654.544 12.8333 652.211 14.5L648.461 16L647.961 17C647.294 17.5 646.378 17.75 645.211 17.75L636.961 23.5L633.961 24.5C633.628 25.6667 632.378 26.5833 630.211 27.25C630.044 28.0833 628.961 29 626.961 30C626.794 30.1667 626.461 30.5833 625.961 31.25C625.628 31.75 625.294 32 624.961 32H624.461C624.461 31.8333 624.294 31.75 623.961 31.75C623.294 31.75 620.378 34.0833 615.211 38.75C615.211 38.9167 614.794 39.5833 613.961 40.75C614.294 40.75 614.461 41.0833 614.461 41.75L613.461 40.75C613.128 41.0833 612.628 41.5833 611.961 42.25C611.294 42.75 610.878 43 610.711 43C610.378 43 610.211 42.9167 610.211 42.75H609.961C609.794 42.75 608.794 43.9167 606.961 46.25C605.794 46.9167 604.211 48.25 602.211 50.25L600.961 52.75C600.294 53.25 599.461 54.0833 598.461 55.25C596.794 56.25 594.794 58.25 592.461 61.25L589.711 63.25L587.211 64.75L586.211 66C585.544 66.1667 584.211 67 582.211 68.5C582.044 69 581.378 69.8333 580.211 71L580.711 71.75C580.544 71.9167 580.378 72.0833 580.211 72.25C580.044 72.4167 579.878 72.6667 579.711 73C578.878 73.1667 578.211 73.5 577.711 74C577.378 74.5 576.878 75.3333 576.211 76.5C575.211 76.8333 574.128 77.5833 572.961 78.75C572.461 79.5833 571.794 80.5833 570.961 81.75C570.128 82.9167 569.128 84.25 567.961 85.75L565.461 87L564.211 89.25C561.211 92.25 559.794 94 559.961 94.5L556.461 96.25C556.294 96.4167 556.128 96.75 555.961 97.25C555.794 97.5833 555.544 98 555.211 98.5C554.544 98.8333 553.878 99.3333 553.211 100C552.711 100.667 552.128 101.917 551.461 103.75L547.461 107.75L543.461 111.25C543.128 111.417 542.544 111.833 541.711 112.5C541.044 113 540.294 113.667 539.461 114.5C539.294 115.167 538.794 116 537.961 117C538.128 117.167 538.211 117.5 538.211 118C537.711 118 536.961 118.833 535.961 120.5H536.211C536.211 120.833 535.544 121.25 534.211 121.75C532.378 122.583 531.461 123.167 531.461 123.5V124.5C531.128 124.5 530.878 124.417 530.711 124.25C530.544 125.417 529.211 126.917 526.711 128.75C526.711 129.25 526.628 129.583 526.461 129.75L522.711 132.75C522.378 133.417 522.211 133.917 522.211 134.25C522.211 135.083 522.794 135.583 523.961 135.75C524.461 135.75 524.711 135.667 524.711 135.5C525.211 135 526.044 133.75 527.211 131.75C527.711 131.917 528.294 131.917 528.961 131.75C529.294 132.083 529.461 132.5 529.461 133H528.461C526.794 134.333 525.378 135.667 524.211 137C523.044 138.167 522.044 139.167 521.211 140C520.711 140.667 520.044 141.417 519.211 142.25C518.544 143.083 517.794 144.167 516.961 145.5C516.961 146 516.711 146.5 516.211 147C515.878 147.667 514.544 148.917 512.211 150.75C511.878 151.083 511.461 151.583 510.961 152.25C510.461 152.917 509.878 154 509.211 155.5L507.461 157C507.461 157.5 507.378 158 507.211 158.5L504.211 161.75C504.044 162.25 503.211 162.5 501.711 162.5C501.211 162.5 501.128 162.667 501.461 163ZM496.711 137.75C496.378 137.417 496.044 137.25 495.711 137.25C495.711 136.417 495.628 135.833 495.461 135.5C495.461 135 495.544 134.5 495.711 134C497.544 133.167 498.711 131.833 499.211 130C501.044 129.333 502.128 128.083 502.461 126.25C503.628 126.25 504.544 125.5 505.211 124C505.544 123.667 505.878 123.25 506.211 122.75C506.544 122.25 506.794 121.75 506.961 121.25C507.294 119.417 507.711 118.083 508.211 117.25C508.878 117.083 509.711 116.583 510.711 115.75L511.961 111.75C513.294 110.75 514.461 109.333 515.461 107.5C516.628 105.667 517.544 104.5 518.211 104V102.75C518.711 102.417 519.378 101.75 520.211 100.75V99.75L526.711 88.75C527.044 88.25 527.294 86.9167 527.461 84.75C529.294 83.75 529.961 82.5 529.461 81C531.128 79.8333 532.294 78.5 532.961 77C533.794 75.5 534.211 74.8333 534.211 75C534.044 74.1667 533.878 73.5 533.711 73C533.711 72.5 533.711 72.1667 533.711 72C535.044 71.8333 536.794 70.5 538.961 68C538.794 67.8333 538.628 67.0833 538.461 65.75C538.461 65.5833 538.461 65.4167 538.461 65.25C538.628 65.0833 538.794 64.8333 538.961 64.5V61.75C538.961 60.75 539.044 60.1667 539.211 60C539.378 59.8333 539.628 59.75 539.961 59.75C540.128 59.75 540.211 59.8333 540.211 60C540.211 60.1667 540.378 60.25 540.711 60.25C541.211 60.25 541.794 59.6667 542.461 58.5C542.461 57.6667 542.544 57 542.711 56.5C543.878 55.3333 544.461 54.1667 544.461 53C544.294 52.1667 544.044 50.9167 543.711 49.25C543.378 47.4167 543.044 46.4167 542.711 46.25C543.878 45.5833 545.044 45.25 546.211 45.25C546.544 44.5833 546.711 44.25 546.711 44.25C546.711 43.9167 546.461 43.6667 545.961 43.5C545.461 42.1667 545.211 41 545.211 40C545.211 39.6667 545.628 38.6667 546.461 37C546.294 36.6667 546.211 36 546.211 35C546.211 34.5 546.211 34 546.211 33.5C546.211 32.8333 546.294 32.1667 546.461 31.5C546.628 30.1667 546.711 29 546.711 28C546.878 27 546.961 26.25 546.961 25.75L547.461 25C547.461 24.1667 547.128 23.5 546.461 23C546.461 23 546.461 22.9167 546.461 22.75C546.628 22.5833 546.794 22.3333 546.961 22C545.461 18.6667 544.794 16.9167 544.961 16.75C544.294 16.5833 543.794 16.1667 543.461 15.5V13.75C542.628 12.4167 541.628 11.25 540.461 10.25L538.461 9.5C538.128 8.49999 537.544 7.99999 536.711 7.99999C536.378 7.99999 536.211 8.08333 536.211 8.25H535.961C535.628 8.25 535.378 8.08333 535.211 7.74999C535.211 7.41666 535.044 7.25 534.711 7.25L530.961 6.25H530.461C530.294 6.41666 530.128 6.49999 529.961 6.49999C529.628 6.49999 529.211 6.33333 528.711 6C528.211 5.66666 527.878 5.49999 527.711 5.49999C527.378 5.49999 526.961 5.74999 526.461 6.25L525.961 5.49999C525.294 5.99999 524.711 6.25 524.211 6.25C523.878 6.25 523.628 6.16666 523.461 6H522.711C522.544 6 522.378 6.08333 522.211 6.25C522.044 6.41666 521.878 6.49999 521.711 6.49999C521.378 6.49999 521.044 6.41666 520.711 6.25C520.544 6.08333 520.378 6 520.211 6C519.878 6 519.378 6.16666 518.711 6.49999C518.044 6.66666 517.544 6.74999 517.211 6.74999C517.044 6.74999 516.711 6.66666 516.211 6.49999C515.878 6.16666 515.628 6 515.461 6C515.461 6 515.128 6.16666 514.461 6.49999C513.961 6.49999 513.461 6.41666 512.961 6.25H511.711C510.711 6.25 510.294 6.33333 510.461 6.49999L509.711 6.99999C509.711 6.83332 509.544 6.58332 509.211 6.25H508.461C508.128 6.25 507.628 6.49999 506.961 6.99999C506.294 7.33333 505.794 7.49999 505.461 7.49999C505.294 7.49999 505.044 7.41666 504.711 7.25C504.378 6.91666 504.044 6.74999 503.711 6.74999C504.044 6.74999 501.878 7.33333 497.211 8.5C496.378 9.16666 495.794 9.5 495.461 9.5H495.211C495.211 9.33332 495.044 9.24999 494.711 9.24999C494.544 9.24999 493.294 9.74999 490.961 10.75C488.461 11.5833 487.211 12 487.211 12C487.044 12 486.961 11.9167 486.961 11.75H486.711C486.544 11.75 485.794 12.25 484.461 13.25C483.128 14.0833 482.294 14.5 481.961 14.5C481.794 14.5 481.711 14.4167 481.711 14.25C481.711 14.0833 481.544 14 481.211 14C480.378 14 477.711 14.9167 473.211 16.75C470.211 17.75 468.961 18.25 469.461 18.25H468.961C468.961 18.0833 468.878 18 468.711 18C468.378 18 467.878 18.25 467.211 18.75C466.711 19.25 466.294 19.5 465.961 19.5H465.711V19.25C465.711 19.75 462.294 21.25 455.461 23.75C454.794 24.25 454.628 24.5 454.961 24.5C454.628 24.5 454.544 24.4167 454.711 24.25H454.461C453.628 24.25 453.128 24.5833 452.961 25.25L452.461 24.75L450.461 26.75V28.75C450.794 28.9167 450.961 29 450.961 29C451.128 29 451.211 29 451.211 29C451.711 29 452.211 28.5833 452.711 27.75C452.878 27.9167 453.294 28 453.961 28H455.211C455.044 28.3333 454.961 28.8333 454.961 29.5C454.461 29.3333 452.878 30.3333 450.211 32.5C448.711 33.6667 446.211 35.0833 442.711 36.75C442.544 36.75 442.294 36.75 441.961 36.75C441.628 36.75 441.294 36.8333 440.961 37C440.128 38.3333 439.044 39.5833 437.711 40.75C437.544 40.5833 437.294 40.5 436.961 40.5C436.461 40.5 435.294 41.1667 433.461 42.5C433.461 42.1667 433.294 41.8333 432.961 41.5L428.461 46C426.461 46.3333 423.211 47.9167 418.711 50.75L411.961 55.25C411.794 55.25 411.711 55.1667 411.711 55C411.878 54.8333 411.794 54.75 411.461 54.75C410.628 54.75 410.044 55.1667 409.711 56C409.378 56.6667 408.878 57.5 408.211 58.5C407.878 58.5 407.378 58.6667 406.711 59C406.044 59.3333 404.794 60.3333 402.961 62C402.294 62.1667 401.294 62.6667 399.961 63.5C398.794 64.3333 397.211 65.8333 395.211 68H393.711C393.378 68.6667 393.211 69.5833 393.211 70.75C392.711 70.0833 392.294 69.9167 391.961 70.25L386.711 75.75C383.378 77.0833 381.711 79.5833 381.711 83.25C382.211 85.5833 382.794 86.75 383.461 86.75C385.128 86.75 386.211 86.75 386.711 86.75C387.211 86.75 387.294 86.8333 386.961 87C389.294 86.6667 390.544 86.5833 390.711 86.75L391.461 86L397.211 84.5L398.461 83.75C398.794 83.75 398.961 83.8333 398.961 84H399.461C399.461 84 399.711 83.8333 400.211 83.5C400.711 83 401.378 82.75 402.211 82.75C403.378 82.75 404.878 82.4167 406.711 81.75C408.711 81.0833 410.044 80.75 410.711 80.75H410.961C410.961 80.9167 411.044 81 411.211 81C411.544 81 411.961 80.75 412.461 80.25C413.128 79.5833 413.628 79.25 413.961 79.25H414.211C414.211 79.4167 414.294 79.5 414.461 79.5C414.961 79.5 416.794 78.6667 419.961 77C423.128 75.3333 424.878 74.5 425.211 74.5C425.544 74.5 425.628 74.5833 425.461 74.75C425.461 74.9167 425.628 75 425.961 75C426.294 75 427.461 74 429.461 72C430.128 71.3333 430.878 71 431.711 71H433.711C433.378 71.6667 432.544 72.1667 431.211 72.5C430.044 72.6667 429.294 73.3333 428.961 74.5C428.794 74.6667 428.878 75 429.211 75.5C428.878 77.1667 427.961 77.8333 426.461 77.5C426.794 76.6667 426.794 76.1667 426.461 76C425.294 76.1667 424.544 77 424.211 78.5L423.461 79.25L422.711 78.25C422.211 78.25 421.711 78.75 421.211 79.75L417.211 80.75L416.211 82.5C415.878 82.5 415.211 82.6667 414.211 83C413.378 83.3333 412.878 83.5 412.711 83.5C412.378 83.5 412.211 83.4167 412.211 83.25H411.711C411.544 83.25 410.961 83.75 409.961 84.75C407.794 85.9167 404.294 87.4167 399.461 89.25C399.294 89.25 398.461 89.4167 396.961 89.75C395.628 90.0833 393.711 90.5833 391.211 91.25C391.044 91.4167 390.461 91.75 389.461 92.25C388.628 92.5833 387.961 92.75 387.461 92.75H385.211C384.544 93.0833 384.211 93.25 384.211 93.25C384.044 93.25 383.878 93.1667 383.711 93C383.544 92.6667 383.294 92.5 382.961 92.5C382.794 92.5 382.461 92.6667 381.961 93C381.628 93.1667 381.294 93.25 380.961 93.25C380.794 93.25 380.544 93.1667 380.211 93C380.044 92.6667 379.794 92.5 379.461 92.5C378.461 92.5 377.961 93 377.961 94C377.128 94 376.044 93.75 374.711 93.25C372.878 92.25 371.044 91.1667 369.211 90C367.378 88.6667 366.461 86.9167 366.461 84.75C366.461 84.0833 366.711 83.5833 367.211 83.25C367.711 82.75 368.044 82.25 368.211 81.75C368.878 80.25 369.211 78.6667 369.211 77L374.961 68.25C375.294 67.9167 376.128 67.4167 377.461 66.75C378.961 65.9167 379.711 64.9167 379.711 63.75C380.711 62.5833 382.794 61.25 385.961 59.75V58.25C386.294 58.0833 386.794 57.8333 387.461 57.5C388.128 57.1667 388.878 56.75 389.711 56.25C389.711 56.25 389.878 56 390.211 55.5C390.544 54.8333 390.794 54.4167 390.961 54.25L391.461 54.75C395.794 50.4167 398.128 48.25 398.461 48.25H398.711C398.711 48.4167 398.794 48.5 398.961 48.5C401.794 48.5 404.294 46.6667 406.461 43C406.794 43 407.128 43.1667 407.461 43.5L408.211 42L409.711 42.75C411.044 40.9167 411.794 40 411.961 40H412.461C412.294 40.1667 412.378 40.25 412.711 40.25C414.711 38.25 415.711 36.8333 415.711 36L416.461 36.5C417.628 36 419.461 35.0833 421.961 33.75C424.461 32.25 425.794 31.5 425.961 31.5L426.461 32C427.628 31.6667 428.794 31.1667 429.961 30.5C430.294 30.3333 430.961 29.75 431.961 28.75L433.961 28C435.294 27 435.711 26.5 435.211 26.5C435.378 26.5 435.628 26.6667 435.961 27L436.461 26.25C436.961 26.25 437.461 26.0833 437.961 25.75C438.461 25.25 438.794 25 438.961 25L439.461 25.75L443.211 23L444.211 23.75C447.044 20.75 449.378 19.25 451.211 19.25L451.711 20C453.378 17.8333 454.711 16.75 455.711 16.75C455.878 16.75 456.044 16.9167 456.211 17.25C456.544 17.4167 456.794 17.5 456.961 17.5C456.961 17.5 458.044 16.9167 460.211 15.75C461.211 15.5833 462.294 15.4167 463.461 15.25C464.794 15.0833 465.544 14.4167 465.711 13.25C466.044 13.25 466.378 13.1667 466.711 13H467.711C467.711 13.1667 468.294 13.5 469.461 14C469.461 14 469.794 13.6667 470.461 13L473.461 12C473.961 11.1667 474.794 10.4167 475.961 9.75C476.461 9.58333 477.378 9.5 478.711 9.5C479.878 8.33333 481.544 7.74999 483.711 7.74999C483.878 7.74999 484.294 7.91666 484.961 8.25C485.461 7.91666 485.711 7.41666 485.711 6.74999C486.378 6.74999 487.628 6.49999 489.461 6C491.461 5.5 492.544 5.24999 492.711 5.24999C493.044 5.24999 493.461 5.66666 493.961 6.49999C495.128 5.33333 496.128 4.75 496.961 4.75C496.961 4.75 497.544 5 498.711 5.49999C499.211 5.16666 499.461 4.66666 499.461 3.99999C500.128 4.33332 501.128 4.49999 502.461 4.49999C502.794 4.49999 503.128 4.33332 503.461 3.99999C503.794 3.49999 504.128 3.24999 504.461 3.24999C504.628 3.24999 504.711 3.33332 504.711 3.49999C504.878 3.66666 505.044 3.75 505.211 3.75L508.961 2.24999L515.711 1.74999C515.878 1.74999 516.128 1.66666 516.461 1.5C516.794 1.33333 517.128 1.25 517.461 1.25C517.628 1.25 518.044 1.58333 518.711 2.24999L519.461 1.25C520.794 2.08333 521.544 2.5 521.711 2.5C522.878 2.5 523.961 2.33333 524.961 1.99999C524.961 2.16666 524.794 2.41666 524.461 2.75C525.128 2.91666 525.961 3.08333 526.961 3.24999C527.961 3.24999 529.294 3.24999 530.961 3.24999C531.128 3.24999 531.378 3.16666 531.711 2.99999C532.044 2.66666 532.294 2.5 532.461 2.5C532.128 2.66666 532.544 3.33333 533.711 4.49999C534.378 5.16666 535.211 5.49999 536.211 5.49999H537.211C537.544 5.33333 537.878 5.24999 538.211 5.24999C537.711 5.24999 539.128 6.16666 542.461 7.99999C542.628 8.16666 542.711 8.5 542.711 8.99999C542.711 9.33333 542.794 9.75 542.961 10.25C542.961 10.4167 543.128 10.5 543.461 10.5C543.628 10.5 543.794 10.4167 543.961 10.25C544.294 9.91666 544.544 9.75 544.711 9.75C545.044 9.75 545.378 10 545.711 10.5C546.044 10.8333 546.878 11.8333 548.211 13.5C548.711 15 549.544 16.5833 550.711 18.25C551.878 19.9167 553.128 22.5 554.461 26V34.25C554.794 34.9167 554.961 35.4167 554.961 35.75C554.961 35.9167 554.794 36.5 554.461 37.5C554.628 37.1667 554.711 38.5833 554.711 41.75C554.711 42.0833 554.544 42.5833 554.211 43.25C553.878 43.9167 553.628 44.4167 553.461 44.75C553.461 45.25 553.711 46.1667 554.211 47.5L552.711 55L550.711 57.5C550.544 58.1667 550.544 59.25 550.711 60.75C550.544 61.5833 550.128 62.5 549.461 63.5C548.961 64.5 548.294 65.6667 547.461 67V69H546.211C546.211 69.3333 546.211 69.75 546.211 70.25C546.211 70.75 546.128 71.3333 545.961 72C545.794 72.3333 545.461 72.75 544.961 73.25C544.628 73.75 544.544 74.3333 544.711 75C543.544 75.6667 543.128 76.6667 543.461 78H543.211C542.878 78 542.294 78.75 541.461 80.25C540.961 80.75 540.378 82.5 539.711 85.5C539.378 85.6667 538.878 86.1667 538.211 87C537.544 87.6667 537.211 88.6667 537.211 90C537.044 90 536.878 89.9167 536.711 89.75L535.211 92.75C534.044 93.4167 532.544 95 530.711 97.5C530.711 97.8333 529.628 98.8333 527.461 100.5L526.211 105.25C525.878 105.75 525.378 106.417 524.711 107.25C524.211 107.917 523.878 108.583 523.711 109.25C523.378 109.583 522.961 109.917 522.461 110.25C521.961 110.583 521.378 110.917 520.711 111.25C520.711 111.917 520.294 112.417 519.461 112.75L518.461 115.5L515.711 117.75C515.711 117.917 515.544 118.333 515.211 119C514.211 120 512.711 121.167 510.711 122.5C510.711 123 510.628 123.333 510.461 123.5L507.461 126.5C507.461 127 507.211 127.75 506.711 128.75C506.378 129.583 505.211 130.5 503.211 131.5C503.044 132.667 502.128 133.833 500.461 135C498.128 136.833 496.878 137.75 496.711 137.75ZM555.211 35.75C555.211 35.9167 555.128 35.9167 554.961 35.75C555.128 35.5833 555.211 35.5833 555.211 35.75Z" fill="#5C352C"/>
</svg>
